# xmcd CD database file
#
# Track frame offsets:
#	150
#	16752
#	31212
#	45437
#	60375
#	76000
#	89700
#	105032
#	118862
#	134705
#	153075
#	169235
#	185325
#	204512
#	217537
#	231837
#	246307
#	263192
#	283137
#	304262
#	316357
#
# Disc length: 4457 seconds
#
# Revision: 0
# Processed by: cddbd v1.5.1PL0 Copyright (c) Steve Scherf et al.
# Submitted via: CDex 1.40Beta6
#
DISCID=14116715
DTITLE=Alabama - Their Greatest and Finest Performances Disc 2
DYEAR=2001
DGENRE=Country
TTITLE0=Mountain Music
TTITLE1=Song Of The South
TTITLE2=Southern Star
TTITLE3=Born Country
TTITLE4=Down Home
TTITLE5=High Cotton
TTITLE6=If You're Gonna Play In Texas(You Gotta Have A Fiddle In The Band)
TTITLE7=Tennessee River
TTITLE8=Pete's Music City
TTITLE9=My Home's In Alabama
TTITLE10=Christmas In Dixie
TTITLE11=Forever's As Far As I'll Go
TTITLE12=Once Upon A Lifetime
TTITLE13=Here We Are
TTITLE14=Why Lady Why
TTITLE15=Old Flame
TTITLE16=Then Again
TTITLE17=Carolina Mountain Dewe
TTITLE18=Very Special Love
TTITLE19=Is This How Love Begins
TTITLE20=Goodbye(Kelly's Song)
EXTD=
EXTT0=
EXTT1=
EXTT2=
EXTT3=
EXTT4=
EXTT5=
EXTT6=
EXTT7=
EXTT8=
EXTT9=
EXTT10=
EXTT11=
EXTT12=
EXTT13=
EXTT14=
EXTT15=
EXTT16=
EXTT17=
EXTT18=
EXTT19=
EXTT20=
PLAYORDER=
